<?xml version="1.0" encoding="iso-8859-1"?>
<!-- Generator: Adobe Illustrator 19.0.0, SVG Export Plug-In . SVG Version: 6.00 Build 0)  -->
<svg version="1.1" id="Layer_1" xmlns="http://www.w3.org/2000/svg" xmlns:xlink="http://www.w3.org/1999/xlink" x="0px" y="0px"
	 viewBox="0 0 512 512" style="enable-background:new 0 0 512 512;" xml:space="preserve">
<polygon style="fill:#BF2717;" points="504.074,140.199 504.074,140.199 434.773,0.017 77.203,0.017 7.904,140.199 255.988,512 
	504.074,140.199 "/>
<polygon style="fill:#F7603E;" points="256.011,511.983 7.925,140.181 504.096,140.181 "/>
<polygon style="fill:#BF2717;" points="256.011,140.181 256.011,511.983 504.096,140.181 "/>
<polygon style="fill:#F53000;" points="256.011,511.983 166.618,140.181 345.403,140.181 "/>
<polygon style="fill:#F7603E;" points="256.011,0 166.618,140.181 345.403,140.181 "/>
<polygon style="fill:#BF2717;" points="256.011,0 256.011,140.181 345.403,140.181 "/>
<polygon style="fill:#F53000;" points="77.226,0 7.925,140.181 166.618,140.181 "/>
<polygon style="fill:#F7603E;" points="345.403,140.181 256.011,0 434.796,0 "/>
<polygon style="fill:#F53000;" points="434.796,0 345.403,140.181 504.096,140.181 "/>
<polygon style="fill:#F7603E;" points="256.011,511.983 345.403,140.181 256.011,140.181 "/>
<g>
</g>
<g>
</g>
<g>
</g>
<g>
</g>
<g>
</g>
<g>
</g>
<g>
</g>
<g>
</g>
<g>
</g>
<g>
</g>
<g>
</g>
<g>
</g>
<g>
</g>
<g>
</g>
<g>
</g>
</svg>
